<svg width="64" height="66" viewBox="0 0 64 66" fill="none" xmlns="http://www.w3.org/2000/svg">
<path d="M15.777 48.6767C-7.38669 36.5451 0.991665 16.8318 11.8342 6.72225C22.6768 -3.38728 55.2043 -0.354554 62.1041 17.8425C69.0039 36.0396 33.5193 80.0157 41.8976 59.7968C50.2759 39.5779 38.9407 60.8083 15.777 48.6767Z" fill="#ABDFF7" stroke="#ABDFF7" stroke-opacity="0.5"/>
<mask id="path-2-outside-1_84_17" maskUnits="userSpaceOnUse" x="14" y="13" width="37" height="27" fill="black">
<rect fill="white" x="14" y="13" width="37" height="27"/>
<path d="M18.1364 27.5V38H15.4545V14.7273H18.1364V23.2727H18.3636C18.7727 22.3712 19.3864 21.6553 20.2045 21.125C21.0303 20.5871 22.1288 20.3182 23.5 20.3182C24.6894 20.3182 25.7311 20.5568 26.625 21.0341C27.5189 21.5038 28.2121 22.2273 28.7045 23.2045C29.2045 24.1742 29.4545 25.4091 29.4545 26.9091V38H26.7727V27.0909C26.7727 25.7045 26.4129 24.6326 25.6932 23.875C24.9811 23.1098 23.9924 22.7273 22.7273 22.7273C21.8485 22.7273 21.0606 22.9129 20.3636 23.2841C19.6742 23.6553 19.1288 24.197 18.7273 24.9091C18.3333 25.6212 18.1364 26.4848 18.1364 27.5ZM46.4858 30.8636V20.5455H49.1676V38H46.4858V35.0455H46.304C45.8949 35.9318 45.2585 36.6856 44.3949 37.3068C43.5313 37.9205 42.4403 38.2273 41.1222 38.2273C40.0312 38.2273 39.0616 37.9886 38.2131 37.5114C37.3646 37.0265 36.6979 36.2992 36.2131 35.3295C35.7282 34.3523 35.4858 33.1212 35.4858 31.6364V20.5455H38.1676V31.4545C38.1676 32.7273 38.5237 33.7424 39.2358 34.5C39.9555 35.2576 40.8722 35.6364 41.9858 35.6364C42.6525 35.6364 43.3305 35.4659 44.0199 35.125C44.7169 34.7841 45.3002 34.2614 45.7699 33.5568C46.2472 32.8523 46.4858 31.9545 46.4858 30.8636Z"/>
</mask>
<path d="M18.1364 27.5V38H15.4545V14.7273H18.1364V23.2727H18.3636C18.7727 22.3712 19.3864 21.6553 20.2045 21.125C21.0303 20.5871 22.1288 20.3182 23.5 20.3182C24.6894 20.3182 25.7311 20.5568 26.625 21.0341C27.5189 21.5038 28.2121 22.2273 28.7045 23.2045C29.2045 24.1742 29.4545 25.4091 29.4545 26.9091V38H26.7727V27.0909C26.7727 25.7045 26.4129 24.6326 25.6932 23.875C24.9811 23.1098 23.9924 22.7273 22.7273 22.7273C21.8485 22.7273 21.0606 22.9129 20.3636 23.2841C19.6742 23.6553 19.1288 24.197 18.7273 24.9091C18.3333 25.6212 18.1364 26.4848 18.1364 27.5ZM46.4858 30.8636V20.5455H49.1676V38H46.4858V35.0455H46.304C45.8949 35.9318 45.2585 36.6856 44.3949 37.3068C43.5313 37.9205 42.4403 38.2273 41.1222 38.2273C40.0312 38.2273 39.0616 37.9886 38.2131 37.5114C37.3646 37.0265 36.6979 36.2992 36.2131 35.3295C35.7282 34.3523 35.4858 33.1212 35.4858 31.6364V20.5455H38.1676V31.4545C38.1676 32.7273 38.5237 33.7424 39.2358 34.5C39.9555 35.2576 40.8722 35.6364 41.9858 35.6364C42.6525 35.6364 43.3305 35.4659 44.0199 35.125C44.7169 34.7841 45.3002 34.2614 45.7699 33.5568C46.2472 32.8523 46.4858 31.9545 46.4858 30.8636Z" fill="#B97A56"/>
<path d="M18.1364 38V39H19.1364V38H18.1364ZM15.4545 38H14.4545V39H15.4545V38ZM15.4545 14.7273V13.7273H14.4545V14.7273H15.4545ZM18.1364 14.7273H19.1364V13.7273H18.1364V14.7273ZM18.1364 23.2727H17.1364V24.2727H18.1364V23.2727ZM18.3636 23.2727V24.2727H19.008L19.2743 23.686L18.3636 23.2727ZM20.2045 21.125L20.7484 21.9642L20.7503 21.9629L20.2045 21.125ZM26.625 21.0341L26.154 21.9163L26.1599 21.9193L26.625 21.0341ZM28.7045 23.2045L27.8115 23.6545L27.8157 23.6628L28.7045 23.2045ZM29.4545 38V39H30.4545V38H29.4545ZM26.7727 38H25.7727V39H26.7727V38ZM25.6932 23.875L24.9611 24.5563L24.9682 24.5637L25.6932 23.875ZM20.3636 23.2841L19.8935 22.4015L19.8895 22.4036L20.3636 23.2841ZM18.7273 24.9091L17.8562 24.4179L17.8522 24.425L18.7273 24.9091ZM18.1364 27.5H17.1364V38H18.1364H19.1364V27.5H18.1364ZM18.1364 38V37H15.4545V38V39H18.1364V38ZM15.4545 38H16.4545V14.7273H15.4545H14.4545V38H15.4545ZM15.4545 14.7273V15.7273H18.1364V14.7273V13.7273H15.4545V14.7273ZM18.1364 14.7273H17.1364V23.2727H18.1364H19.1364V14.7273H18.1364ZM18.1364 23.2727V24.2727H18.3636V23.2727V22.2727H18.1364V23.2727ZM18.3636 23.2727L19.2743 23.686C19.6056 22.9557 20.0933 22.3888 20.7484 21.9642L20.2045 21.125L19.6607 20.2858C18.6794 20.9218 17.9398 21.7867 17.453 22.8595L18.3636 23.2727ZM20.2045 21.125L20.7503 21.9629C21.3618 21.5647 22.2495 21.3182 23.5 21.3182V20.3182V19.3182C22.008 19.3182 20.6988 19.6096 19.6587 20.2871L20.2045 21.125ZM23.5 20.3182V21.3182C24.5537 21.3182 25.4283 21.5288 26.154 21.9162L26.625 21.0341L27.096 20.1519C26.0338 19.5849 24.8251 19.3182 23.5 19.3182V20.3182ZM26.625 21.0341L26.1599 21.9193C26.8537 22.2839 27.4046 22.847 27.8115 23.6545L28.7045 23.2045L29.5976 22.7546C29.0196 21.6076 28.1842 20.7237 27.0901 20.1488L26.625 21.0341ZM28.7045 23.2045L27.8157 23.6628C28.2205 24.4478 28.4545 25.5119 28.4545 26.9091H29.4545H30.4545C30.4545 25.3063 30.1886 23.9007 29.5933 22.7463L28.7045 23.2045ZM29.4545 26.9091H28.4545V38H29.4545H30.4545V26.9091H29.4545ZM29.4545 38V37H26.7727V38V39H29.4545V38ZM26.7727 38H27.7727V27.0909H26.7727H25.7727V38H26.7727ZM26.7727 27.0909H27.7727C27.7727 25.5342 27.3659 24.1839 26.4182 23.1863L25.6932 23.875L24.9682 24.5637C25.4598 25.0813 25.7727 25.8749 25.7727 27.0909H26.7727ZM25.6932 23.875L26.4252 23.1937C25.4848 22.1833 24.207 21.7273 22.7273 21.7273V22.7273V23.7273C23.7778 23.7273 24.4773 24.0364 24.9612 24.5563L25.6932 23.875ZM22.7273 22.7273V21.7273C21.7034 21.7273 20.751 21.9448 19.8935 22.4015L20.3636 23.2841L20.8337 24.1667C21.3702 23.881 21.9936 23.7273 22.7273 23.7273V22.7273ZM20.3636 23.2841L19.8895 22.4036C19.0261 22.8685 18.3463 23.5488 17.8562 24.4179L18.7273 24.9091L19.5984 25.4002C19.9113 24.8452 20.3224 24.4421 20.8377 24.1646L20.3636 23.2841ZM18.7273 24.9091L17.8522 24.425C17.3584 25.3177 17.1364 26.3568 17.1364 27.5H18.1364H19.1364C19.1364 26.6129 19.3082 25.9248 19.6023 25.3932L18.7273 24.9091ZM46.4858 20.5455V19.5455H45.4858V20.5455H46.4858ZM49.1676 20.5455H50.1676V19.5455H49.1676V20.5455ZM49.1676 38V39H50.1676V38H49.1676ZM46.4858 38H45.4858V39H46.4858V38ZM46.4858 35.0455H47.4858V34.0455H46.4858V35.0455ZM46.304 35.0455V34.0455H45.6641L45.396 34.6264L46.304 35.0455ZM44.3949 37.3068L44.9741 38.122L44.9788 38.1186L44.3949 37.3068ZM38.2131 37.5114L37.7169 38.3796L37.7228 38.3829L38.2131 37.5114ZM36.2131 35.3295L35.3173 35.774L35.3186 35.7768L36.2131 35.3295ZM35.4858 20.5455V19.5455H34.4858V20.5455H35.4858ZM38.1676 20.5455H39.1676V19.5455H38.1676V20.5455ZM39.2358 34.5L38.5072 35.1849L38.5108 35.1887L39.2358 34.5ZM44.0199 35.125L43.5805 34.2267L43.5766 34.2286L44.0199 35.125ZM45.7699 33.5568L44.9419 32.996L44.9378 33.0021L45.7699 33.5568ZM46.4858 30.8636H47.4858V20.5455H46.4858H45.4858V30.8636H46.4858ZM46.4858 20.5455V21.5455H49.1676V20.5455V19.5455H46.4858V20.5455ZM49.1676 20.5455H48.1676V38H49.1676H50.1676V20.5455H49.1676ZM49.1676 38V37H46.4858V38V39H49.1676V38ZM46.4858 38H47.4858V35.0455H46.4858H45.4858V38H46.4858ZM46.4858 35.0455V34.0455H46.304V35.0455V36.0455H46.4858V35.0455ZM46.304 35.0455L45.396 34.6264C45.0656 35.3422 44.5474 35.9653 43.811 36.495L44.3949 37.3068L44.9788 38.1186C45.9696 37.4059 46.7241 36.5214 47.2119 35.4645L46.304 35.0455ZM44.3949 37.3068L43.8157 36.4916C43.1587 36.9584 42.284 37.2273 41.1222 37.2273V38.2273V39.2273C42.5967 39.2273 43.9038 38.8825 44.9741 38.122L44.3949 37.3068ZM41.1222 38.2273V37.2273C40.1819 37.2273 39.3847 37.0231 38.7033 36.6398L38.2131 37.5114L37.7228 38.3829C38.7384 38.9542 39.8806 39.2273 41.1222 39.2273V38.2273ZM38.2131 37.5114L38.7092 36.6431C38.0506 36.2668 37.5141 35.6955 37.1075 34.8823L36.2131 35.3295L35.3186 35.7768C35.8817 36.903 36.6785 37.7862 37.7169 38.3796L38.2131 37.5114ZM36.2131 35.3295L37.1089 34.8851C36.7127 34.0866 36.4858 33.0198 36.4858 31.6364H35.4858H34.4858C34.4858 33.2226 34.7437 34.618 35.3173 35.774L36.2131 35.3295ZM35.4858 31.6364H36.4858V20.5455H35.4858H34.4858V31.6364H35.4858ZM35.4858 20.5455V21.5455H38.1676V20.5455V19.5455H35.4858V20.5455ZM38.1676 20.5455H37.1676V31.4545H38.1676H39.1676V20.5455H38.1676ZM38.1676 31.4545H37.1676C37.1676 32.9217 37.5835 34.2023 38.5072 35.1849L39.2358 34.5L39.9644 33.8151C39.4638 33.2825 39.1676 32.5328 39.1676 31.4545H38.1676ZM39.2358 34.5L38.5108 35.1887C39.4327 36.1592 40.6182 36.6364 41.9858 36.6364V35.6364V34.6364C41.1261 34.6364 40.4783 34.356 39.9608 33.8113L39.2358 34.5ZM41.9858 35.6364V36.6364C42.8282 36.6364 43.6571 36.42 44.4632 36.0214L44.0199 35.125L43.5766 34.2286C43.0039 34.5118 42.4767 34.6364 41.9858 34.6364V35.6364ZM44.0199 35.125L44.4593 36.0233C45.3296 35.5976 46.0433 34.9495 46.6019 34.1115L45.7699 33.5568L44.9378 33.0021C44.5571 33.5733 44.1042 33.9706 43.5805 34.2267L44.0199 35.125ZM45.7699 33.5568L46.5978 34.1177C47.215 33.2065 47.4858 32.0984 47.4858 30.8636H46.4858H45.4858C45.4858 31.8107 45.2793 32.498 44.942 32.996L45.7699 33.5568Z" fill="#B97A56" mask="url(#path-2-outside-1_84_17)"/>
<path d="M58.4367 14.8778L57.6518 17.7033L53.7547 20.9377L49.6802 22.1453L48.4963 20.4168L51.0945 17.0539L55.5185 14.5888L58.4367 14.8778Z" fill="#067701"/>
</svg>
